:SAMPLES-PER-SECOND 30
:FULLY-SPECIFIED
:DEGREES
245
root  -16.6452 34.4242 -13.5258 -177.265 -14.4559 -179.788
RightUpLeg  -6.37605 -22.0763 -1.71213
RightLeg  16.9515 -12.0191 -2.8082
RightFoot  -1.40865 -0.00140402 0.54842
RightToes  -23.7474 -0.110309 -0.210999
Spine  -1.51033 2.09889 -0.974255
Spine1  -2.77859 4.46192 -1.359
HEad  -68.4517 -9.92925 6.37473
LeftShoulder1  -1.94126e-019 -3.10601e-018 -2.51263e-017
LeftArm  7.59655 -12.0115 -78.3949
LeftForeArm  166.119 -58.5962 -163.212
LeftHand  -1.4583 -2.94761 20.3808
RightShoulder  -4.96962e-017 0 -2.36833e-017
RightArm  23.8134 23.222 82.9112
RightForeArm  -174.351 68.4878 157.124
RightHand  -0.535269 -3.5096 -32.4384
LeftUpLeg  -13.6104 -9.50161 5.46933
LeftLeg  20.819 6.74446 2.07095
LeftFoot  2.33662 -0.00639432 0.475087
LeftToes  -25.3085 1.7763e-006 6.54387e-008
246
root  -16.6107 34.4416 -13.4717 -176.965 -14.4872 -179.875
RightUpLeg  -6.57536 -21.9774 -1.59457
RightLeg  16.5326 -12.1753 -2.75104
RightFoot  -1.25693 -0.00166936 0.517618
RightToes  -23.6362 -0.110044 -0.21084
Spine  -1.43253 2.18252 -1.07757
Spine1  -2.61464 4.64318 -1.58685
HEad  -69.5153 -9.06833 6.93871
LeftShoulder1  -1.94126e-019 -3.10601e-018 -2.51263e-017
LeftArm  5.8161 -11.5741 -77.804
LeftForeArm  168.828 -59.0541 -163.16
LeftHand  -1.38249 -2.92016 19.4136
RightShoulder  -4.96962e-017 0 -2.36833e-017
RightArm  21.0691 22.1947 82.0288
RightForeArm  -175.134 68.0552 157.512
RightHand  -0.799311 -2.49701 -31.4944
LeftUpLeg  -13.6884 -9.30926 5.48233
LeftLeg  20.1736 6.57801 1.93954
LeftFoot  2.72425 -0.00800534 0.514261
LeftToes  -25.5498 1.7763e-006 6.54387e-008
247
root  -16.5855 34.4657 -13.431 -176.712 -14.5201 -179.926
RightUpLeg  -6.67006 -22.0811 -1.50299
RightLeg  16.0341 -12.1388 -2.63296
RightFoot  -0.998491 -0.00198561 0.456366
RightToes  -23.7643 -0.109876 -0.210772
Spine  -1.455 2.12233 -1.07179
Spine1  -2.65401 4.52307 -1.58259
HEad  -69.6677 -8.36992 7.23101
LeftShoulder1  -1.94126e-019 -3.10601e-018 -2.51263e-017
LeftArm  3.37185 -10.5745 -77.0057
LeftForeArm  166.678 -59.228 -162.859
LeftHand  -1.35801 -2.86861 19.1942
RightShoulder  -4.96962e-017 0 -2.36833e-017
RightArm  17.5371 20.2098 80.8778
RightForeArm  -174.328 68.068 157.587
RightHand  -0.730553 -2.90531 -33.4532
LeftUpLeg  -13.6806 -9.2736 5.49978
LeftLeg  19.5052 6.56139 1.85206
LeftFoot  3.04986 -0.00925529 0.54983
LeftToes  -25.4186 1.7763e-006 6.54387e-008
248
root  -16.5665 34.4954 -13.4084 -176.479 -14.454 -179.964
RightUpLeg  -6.64585 -22.0936 -1.41245
RightLeg  15.3709 -12.0993 -2.47935
RightFoot  -0.704128 -0.00200694 0.38729
RightToes  -23.7834 -0.109816 -0.210788
Spine  -1.46158 1.93948 -1.02879
Spine1  -2.66051 4.14986 -1.49282
HEad  -68.9568 -7.52023 7.15359
LeftShoulder1  -1.94126e-019 -3.10601e-018 -2.51263e-017
LeftArm  1.27606 -9.52223 -76.2751
LeftForeArm  166.748 -59.1341 -162.926
LeftHand  -1.33 -2.03323 20.8426
RightShoulder  -4.96962e-017 0 -2.36833e-017
RightArm  13.3204 17.9909 80.675
RightForeArm  -178.76 68.2477 156.887
RightHand  -0.285207 -4.44473 -34.5768
LeftUpLeg  -13.5996 -9.55975 5.51703
LeftLeg  18.8457 6.94052 1.87303
LeftFoot  3.46973 -0.0127358 0.620665
LeftToes  -25.6568 1.7763e-006 6.54387e-008
249
root  -16.5537 34.5278 -13.3821 -176.285 -14.0218 -179.987
RightUpLeg  -6.58212 -21.585 -1.29312
RightLeg  14.5808 -12.2301 -2.33173
RightFoot  -0.332768 -0.00152667 0.307869
RightToes  -23.7282 -0.109876 -0.210884
Spine  -1.47813 1.74437 -0.957329
Spine1  -2.68679 3.77127 -1.34585
HEad  -67.6468 -6.71616 7.33237
LeftShoulder1  -1.94126e-019 -3.10601e-018 -2.51263e-017
LeftArm  0.683283 -8.87477 -76.3205
LeftForeArm  165.403 -59.2406 -162.737
LeftHand  -1.2497 -1.44077 21.2559
RightShoulder  -4.96962e-017 0 -2.36833e-017
RightArm  11.0072 16.4258 81.6652
RightForeArm  170.685 68.8296 154.938
RightHand  0.613241 -7.25133 -36.534
LeftUpLeg  -13.3827 -9.8319 5.51947
LeftLeg  18.1598 7.66459 1.96978
LeftFoot  3.79377 -0.0175594 0.711563
LeftToes  -25.3708 1.7763e-006 6.54387e-008
250
root  -16.5496 34.5637 -13.3647 -176.103 -13.2432 -179.976
RightUpLeg  -6.44053 -20.9857 -1.17419
RightLeg  13.5809 -12.1038 -2.09144
RightFoot  0.182763 -3.05893e-006 0.196803
RightToes  -23.8358 -0.110065 -0.211053
Spine  -1.56687 1.72519 -0.9017
Spine1  -2.86489 3.74127 -1.21768
HEad  -65.9937 -6.82871 8.63353
LeftShoulder1  -1.94126e-019 -3.10601e-018 -2.51263e-017
LeftArm  5.15439 -9.04881 -77.0606
LeftForeArm  164.924 -60.6196 -161.764
LeftHand  -1.22852 -1.55218 20.5818
RightShoulder  -4.96962e-017 0 -2.36833e-017
RightArm  12.2989 15.132 82.6055
RightForeArm  166.018 69.6171 153.327
RightHand  1.31229 -9.10572 -39.0033
LeftUpLeg  -13.0422 -9.85154 5.52381
LeftLeg  17.4292 8.48703 2.06538
LeftFoot  4.06954 -0.0232167 0.813199
LeftToes  -24.9361 1.7763e-006 6.54387e-008
251
root  -16.5658 34.6002 -13.3482 -175.933 -12.3805 -179.944
RightUpLeg  -6.25556 -20.7467 -1.10588
RightLeg  12.4956 -11.5394 -1.77249
RightFoot  0.820749 0.00321423 0.0645825
RightToes  -24.4085 -0.110395 -0.211288
Spine  -1.63832 1.86081 -0.904191
Spine1  -3.02242 3.97907 -1.18109
HEad  -64.0559 -7.81192 10.467
LeftShoulder1  -1.94126e-019 -3.10601e-018 -2.51263e-017
LeftArm  14.8737 -10.155 -78.6719
LeftForeArm  164.481 -64.1374 -158.954
LeftHand  -1.29034 -2.72043 18.5849
RightShoulder  -4.96962e-017 0 -2.36833e-017
RightArm  16.7625 13.7928 82.5367
RightForeArm  169.914 70.2695 152.942
RightHand  0.840621 -7.96847 -36.2671
LeftUpLeg  -12.6843 -9.65236 5.50666
LeftLeg  16.7184 9.18746 2.11482
LeftFoot  4.35457 -0.0289509 0.912401
LeftToes  -24.8332 1.7763e-006 6.54387e-008
252
root  -16.5951 34.6288 -13.3267 -175.704 -11.6237 -179.944
RightUpLeg  -6.19872 -20.5497 -1.06133
RightLeg  11.5864 -11.062 -1.52202
RightFoot  1.29925 0.00645894 -0.0250414
RightToes  -24.5039 -0.110877 -0.212012
Spine  -1.6221 1.68798 -0.93215
Spine1  -3.02233 3.59531 -1.19694
HEad  -62.0651 -8.04749 11.9545
LeftShoulder1  -1.94126e-019 -3.10601e-018 -2.51263e-017
LeftArm  20.6811 -9.61918 -79.2274
LeftForeArm  160.509 -66.8903 -155.805
LeftHand  -1.34638 -0.999516 24.3675
RightShoulder  -4.96962e-017 0 -2.36833e-017
RightArm  18.6164 11.3123 81.5119
RightForeArm  175.639 69.7387 154.412
RightHand  0.641156 -7.3705 -35.9902
LeftUpLeg  -12.4558 -9.46641 5.45926
LeftLeg  16.1082 9.77279 2.1397
LeftFoot  4.5565 -0.0337681 0.992311
LeftToes  -24.5142 1.7763e-006 6.54387e-008
